<?xml version="1.0" encoding="UTF-8" standalone="no"?>
<svg xmlns="http://www.w3.org/2000/svg" height="256" width="590">
  <defs>
    <marker id="a" refY="0" refX="0" overflow="visible" orient="auto">
      <path stroke="#000" stroke-width="1pt" d="m0 0 5-5-17.5 5 17.5 5-5-5z" transform="matrix(-.8 0 0 -.8 -10 0)"/>
    </marker>
  </defs>
  <g transform="translate(-116.14321,-67.395134)">
    <g fill="none" stroke-width="1px" stroke="#000">
      <path d="m128.55266 106.42284c0 9.78748 7.93432 17.72181 17.7218 17.72181 9.78749 0 17.72181-7.93433 17.72181-17.72181 0-9.787483-7.93432-17.721805-17.72181-17.721805-9.78748 0-17.7218 7.934322-17.7218 17.721805z"/>
      <path d="m143.21576 124.07735-3.53553 75.448 33.57785 4.3011-5.47207 32.41771"/>
      <path d="m139.68023 199.52535 40.35117 10.60665-6.40958 40.73526"/>
      <path d="m142.24764 145.89437c-0.50507 2.0203 6.24478 22.14778 6.24478 22.14778l40.91118 7.39757"/>
      <path d="m161.11932 179.65891h95.45942v8.08122h-95.45942z"/>
      <path d="m190.41376 187.74013h64.64976v61.6193h-64.64976z"/>
      <path d="m227.7894 113.99899h0.6425c1.39906 0 2.52538 1.12632 2.52538 2.52538v48.48734c0 1.39906-1.12632 2.52538-2.52538 2.52538h-0.6425c-1.39906 0-2.52538-1.12632-2.52538-2.52538v-48.48734c0-1.39906 1.12632-2.52538 2.52538-2.52538z"/>
      <path d="m214.86427 169.04555 0.70788 2.64183c0.0146 0.0545-1.0616 0.38981-2.41298 0.75191l-23.44364 6.28171c-1.35139 0.3621-2.45107 0.60976-2.46566 0.55531l-0.70788-2.64183c-0.0146-0.0545 1.0616-0.38981 2.41298-0.75191l23.44364-6.28171c1.35138-0.3621 2.45107-0.60976 2.46566-0.55531z"/>
      <path d="m189.28571 175.18361c1.07143-0.17857 9.69113-4.37742 10.53571-2.32143"/>
      <path d="m257.3465 195.15782h24.74873v54.20161h-24.74873z"/>
      <path d="m134.35029 150.86955v48.9924s30.67301 7.76344 28.97357 7.76344c-1.69945 0-11.62882 3.11594-11.62882 3.11594l-17.34475-0.27278-14.14214-7.07107v-52.52793z"/>
      <path d="m212.10765 173.00738 3.77455 6.53771"/>
      <path d="m228.11065 167.82881v8.74999l3.8177 2.20416m-3.8177-2.20416-3.8177 2.20416"/>
      <path d="m135.86552 210.4787v24.23351l11.36422 11.36422m-11.36422-11.36422-11.36422 11.36422"/>
      <path d="m117.27497 101.4529 44.15302-5.101064 1.88556-5.683526-46.59876 7.036044z" fill="#000"/>
      <path d="m130.15079 96.279179s10.07887-10.576423 16.04279-12.936533c3.52343-1.39433 8.04163-3.251177 11.29275-1.304669 2.61169 1.563666 3.46274 9.378257 3.46274 9.378257" fill="#000"/>
      <path d="m156.39967 88.035138c-5.13547-6.917364-14.64677-13.488423-22.55618-11.503145-1.83734 0.461176 1.12838 1.51916 1.12838 1.51916z" fill="#fff"/>
      <path d="m135.46157 89.437278c1.50522-0.1739 24.08346-2.782401 24.08346-2.782401l0.85594 2.162919-25.18328 2.909463z" fill="#fff"/>
    </g>
    <g stroke="#666">
      <g stroke-miterlimit="1.5">
        <path d="m659.20027 149.59302 3.48392 99.76641 42.89691-28.2181-2.48103-71.0476z" fill="#707088"/>
        <path d="m612.61196 149.73 46.58831-0.13698 3.48392 99.76641-46.86267-7.71971z" fill="#46465a"/>
      </g>
      <g stroke-width=".35" fill="#71ff14">
        <path d="m625.30072 224.18073 2.33779 0.15102c0.02 0.001 0.0359 0.32076 0.0359 0.71632 0 0.39555-0.0161 0.71295-0.0359 0.71167l-2.33779-0.15102c-0.02-0.001-0.036-0.32077-0.036-0.71632 0-0.39556 0.0161-0.71296 0.036-0.71167z"/>
        <path d="m636.89581 157.06419 2.3378 0.15102c0.02 0.001 0.0359 0.32076 0.0359 0.71631s-0.0161 0.71295-0.0359 0.71167l-2.3378-0.15102c-0.02-0.001-0.0359-0.32076-0.0359-0.71631s0.0161-0.71296 0.0359-0.71167z"/>
        <path d="m626.18462 172.15786 2.33779 0.15102c0.02 0.001 0.0359 0.32076 0.0359 0.71631 0 0.39556-0.0161 0.71296-0.0359 0.71168l-2.33779-0.15102c-0.02-0.001-0.0359-0.32077-0.0359-0.71633 0-0.39555 0.0161-0.71295 0.0359-0.71166z"/>
        <path d="m641.08434 186.55254 2.3378 0.15102c0.02 0.001 0.0359 0.32076 0.0359 0.71631 0 0.39556-0.0161 0.71296-0.0359 0.71168l-2.3378-0.15102c-0.02-0.001-0.0359-0.32077-0.0359-0.71633 0-0.39555 0.0161-0.71295 0.0359-0.71166z"/>
        <path d="m641.84198 208.77589 2.3378 0.15102c0.02 0.001 0.0359 0.32076 0.0359 0.71631s-0.0161 0.71296-0.0359 0.71168l-2.3378-0.15102c-0.02-0.001-0.0359-0.32077-0.0359-0.71632s0.0161-0.71295 0.0359-0.71167z"/>
        <path d="m623.91176 186.80507 2.3378 0.15102c0.02 0.001 0.0359 0.32076 0.0359 0.71631s-0.0161 0.71296-0.0359 0.71168l-2.3378-0.15102c-0.0199-0.001-0.0359-0.32077-0.0359-0.71632s0.0161-0.71295 0.0359-0.71167z"/>
        <path d="m630.98285 186.55254 2.33778 0.15102c0.02 0.001 0.036 0.32077 0.036 0.71632s-0.0161 0.71296-0.036 0.71167l-2.33778-0.15102c-0.02-0.001-0.036-0.32078-0.036-0.71633s0.0161-0.71295 0.036-0.71166z"/>
        <path d="m636.28612 187.56268 2.3378 0.15102c0.02 0.001 0.0359 0.32077 0.0359 0.71632s-0.0161 0.71296-0.0359 0.71167l-2.3378-0.15102c-0.02-0.001-0.0359-0.32076-0.0359-0.71631s0.0161-0.71296 0.0359-0.71168z"/>
        <path d="m619.11354 156.75299 2.33779 0.15103c0.02 0.001 0.0359 0.32076 0.0359 0.71632 0 0.39555-0.0161 0.71295-0.0359 0.71167l-2.33779-0.15103c-0.02-0.001-0.0359-0.32076-0.0359-0.71631 0-0.39556 0.0161-0.71296 0.0359-0.71168z"/>
        <path d="m627.19478 156.78363 2.3378 0.15102c0.02 0.001 0.0359 0.32076 0.0359 0.71631s-0.0161 0.71296-0.0359 0.71167l-2.3378-0.15102c-0.02-0.001-0.036-0.32077-0.036-0.71632s0.0161-0.71295 0.036-0.71166z"/>
        <path d="m631.63846 156.60503 2.3378 0.15102c0.0199 0.001 0.0359 0.32076 0.0359 0.71631s-0.0161 0.71296-0.0359 0.71167l-2.3378-0.15102c-0.02-0.001-0.0359-0.32076-0.0359-0.71631s0.0161-0.71295 0.0359-0.71167z"/>
      </g>
    </g>
    <g stroke="#000">
      <g>
        <path stroke-width=".3" d="m281.71973 208.76396c0.27997-0.0968 6.0519-2.36618 9.12689-2.32286 2.30737 0.0325 4.53849 1.48518 6.83117 1.93571 2.32286 0.45647 6.99914 0.77429 6.99914 0.77429 4.48145 0.49576 2.04053-2.47329 5.71131-2.61321 3.86353-0.0968 5.7113-0.0968 6.5512 0l-0.084 2.87599c-0.8399-0.0968-2.68767-0.0968-6.5512 0-3.67078 0.13992-1.22986 3.10898-5.71131 2.61321 0 0-4.67628-0.31781-6.99914-0.77428-2.29268-0.45054-4.5238-1.90321-6.83117-1.93572-3.07499-0.0433-8.84692 2.22608-9.12689 2.32286-0.0523-0.0684 0.084-2.87599 0.084-2.87599" fill="#0000e9"/>
        <path stroke-width=".3" d="m275.95102 208.50534 5.682-1.52249 1.38203 0.14047-4.92356 1.31926h4.96028v4.39946h-8.57809v-3.43124l1.33095-0.76842h2.67216" fill="#fff"/>
      </g>
      <g>
        <path stroke-width=".3" d="m604.64498 208.68328c-0.27997-0.0968-6.0519-2.36618-9.12689-2.32286-2.30737 0.0325-4.53848 1.48518-6.83117 1.93571-2.32286 0.45647-6.99914 0.77429-6.99914 0.77429-4.48145 0.49576-2.04053-2.47329-5.71131-2.61321-3.86352-0.0968-5.7113-0.0968-6.5512 0l0.084 2.87599c0.8399-0.0968 2.68768-0.0968 6.5512 0 3.67078 0.13992 1.22986 3.10898 5.71131 2.61321 0 0 4.67628-0.31781 6.99914-0.77428 2.29269-0.45054 4.5238-1.90321 6.83117-1.93572 3.075-0.0433 8.84692 2.22608 9.12689 2.32286 0.0523-0.0684-0.084-2.87599-0.084-2.87599" fill="#0000e9"/>
        <path stroke-width=".3" d="m611.41369 208.42466-5.682-1.52249-1.38203 0.14047 4.92356 1.31926h-4.96028v4.39946h8.57809v-3.43124l-1.33095-0.76842h-2.67216" fill="#fff"/>
      </g>
    </g>
    <g stroke="#000" fill="none">
      <g>
        <path stroke-width=".65px" marker-end="url(#a)" d="m375.63752 138.174h134.52387"/>
        <path stroke-width=".65px" marker-end="url(#a)" d="m510.1607 146.04376h-134.5225"/>
        <path stroke-width=".65px" marker-end="url(#a)" d="m375.63752 280.15914h134.52387"/>
        <path stroke-width=".65px" marker-end="url(#a)" d="m510.1607 288.0289h-134.5225"/>
      </g>
      <g>
        <path stroke-width="1px" d="m568.91466 284.09788v-141.98516"/>
        <path stroke-width="1px" d="m316.88424 284.09786v-141.98515"/>
        <path d="m336.89946 180.7374-20.01522-38.62469 20.01521-38.62468h212l20.01521 38.62469-20.01521 38.62468z"/>
        <path d="m336.89945 322.72255-20.01521-38.62469 20.01521-38.62469h212l20.01521 38.62469-20.01521 38.62469z"/>
      </g>
    </g>
    <g>
      <g>
        <path stroke="#9e1e1e" stroke-width="3.012238" d="m326.42091 78.861923c-0.89859-2.193971-1.51179-4.885601-0.28694-7.072697 1.45828-2.348574 5.21962-4.125498 9.05533-1.159854 0.99854 0.772036 2.06523 1.493256 2.97738 2.364938 1.80174-1.71373 4.08244-3.638016 6.73359-3.757511 2.84992-0.219261 5.87167 1.512392 6.62396 4.3684 0.8571 2.457-0.34704 4.981187-1.74204 6.974852-3.12956 4.426589-7.16289 8.123667-11.27286 11.620619-3.75411-3.023978-7.32245-6.351816-10.2342-10.210477-0.71292-0.981576-1.37447-2.010496-1.85422-3.12827z" fill="#fff"/>
        <path stroke="#fff" stroke-width="2.2591784" d="m323.87334 81.000627s1.36899-0.06973 3.27227 0.06838c2.10846-1.435098 2.34653-12.208507 4.20612-9.91783 0.74156 0.913454-1.04327 19.351497 0 19.422548 2.0009 0.207859 1.35646-10.669791 2.93732-10.702029 0.96526 0.104554 0.80259 2.820478 1.97625 2.933859 0.82456 0.07964 0.92901-1.7721 1.75727-1.757272 2.03055 0.03637 3.75531-0.273601 3.75531-0.273601" fill="none"/>
        <path stroke="#9e1e1e" stroke-width="1.6251138" d="m323.87334 81.000627s1.36899-0.06973 3.27227 0.06838c2.10846-1.435098 2.34653-12.208507 4.20612-9.91783 0.74156 0.913454-1.04327 19.351497 0 19.422548 2.0009 0.207859 1.35646-10.669791 2.93732-10.702029 0.96526 0.104554 0.80259 2.820478 1.97625 2.933859 0.82456 0.07964 0.92901-1.7721 1.75727-1.757272 2.03055 0.03637 3.75531-0.273601 3.75531-0.273601" fill="none"/>
      </g>
      <path d="m349.42725 210.5022c-1.22675-0.62988-2.50428-0.94935-3.7973-0.94935-3.27744 0-5.88698 2.03863-7.33762 3.50142-1.45055-1.46279-4.06027-3.50142-7.33788-3.50142-1.29276 0-2.57038 0.31947-3.79721 0.94935-2.97856 1.52941-4.31752 4.63259-3.77002 8.73783 0.25945 1.94596 1.48127 4.02146 3.22991 6.15611v7.80256c0 0.66931 0.54266 1.21197 1.21196 1.21197 0.66931 0 1.21197-0.54266 1.21197-1.21197v-5.1139c0.35687 0.3669 0.72334 0.7346 1.09781 1.10283v12.89914c0 0.24343 0.19732 0.44074 0.44075 0.44074s0.44075-0.19731 0.44075-0.44074v-12.04423c0.15824 0.15147 0.31736 0.30284 0.47753 0.4543v8.86263c0 0.54768 0.444 0.99168 0.99168 0.99168s0.99168-0.444 0.99168-0.99168v-7.01946c0.5402 0.49513 1.08347 0.98948 1.62499 1.48215 0.74473 0.6774 1.448 1.31722 2.13922 1.9559l1.04695 0.96747 1.04686-0.96747c0.0913-0.0844 0.18359-0.16907 0.27538-0.25356v9.941c0 0.24343 0.19731 0.44075 0.44074 0.44075 0.24344 0 0.44075-0.19732 0.44075-0.44075v-10.74883c0.16968-0.1548 0.34086-0.31075 0.51397-0.46846v6.81009c0 0.36506 0.29597 0.66112 0.66112 0.66112s0.66112-0.29597 0.66112-0.66112v-8.01361c5.18924-4.73072 10.30095-9.57391 10.86517-13.80448 0.54733-4.10542-0.79154-7.2086-3.77028-8.73801zm0.71217 8.33018c-0.44621 3.3459-6.15136 8.53585-10.73554 12.70622-0.367 0.3339-0.74051 0.67362-1.11164 1.01263-0.37051-0.33848-0.7434-0.67767-1.10996-1.01113-4.5848-4.17081-10.29074-9.36146-10.73694-12.70772-0.16845-1.26328-0.11204-2.35969 0.16756-3.25896 0.32977-1.05997 0.9688-1.82098 1.95353-2.32676 0.78662-0.40387 1.59013-0.60867 2.38811-0.60867 3.4017 0 6.05815 3.62498 6.08217 3.65825l1.25069 1.74582 1.25808-1.74239c0.0263-0.0366 2.68321-3.66168 6.08447-3.66168 0.79806 0 1.60158 0.2048 2.38811 0.60867 0.9849 0.50569 1.62384 1.26679 1.95352 2.32676 0.27978 0.89919 0.33628 1.9956 0.16784 3.25896z" fill="#9e1e1e"/>
    </g>
    <g xml:space="preserve" font-family="Arial,sans-serif">
      <switch allowReorder="yes">
        <text font-size="24px" y="283.86023" x="151.1765" font-weight="bold" systemLanguage="de"><tspan y="283.86023" x="151.1765">Angreifer</tspan></text>
        <text font-size="24px" y="283.86023" x="151.1765" font-weight="bold"><tspan y="283.86023" x="151.1765">Attacker</tspan></text>
      </switch>
      <switch allowReorder="yes">
        <text font-size="24px" y="283.86023" x="621.12195" font-weight="bold" systemLanguage="de"><tspan y="283.86023" x="621.12195">Server</tspan></text>
        <text font-size="24px" y="283.86023" x="621.12195" font-weight="bold"><tspan y="283.86023" x="621.12195">Server</tspan></text>
      </switch>
      <switch allowReorder="yes">
        <text font-size="16px" y="79.020844" x="359.97864" font-weight="bold" systemLanguage="de"><tspan y="79.020844" x="359.97864">Heartbeat Anfrage</tspan><tspan y="96.620842" x="359.97864">(Normalfall)</tspan></text>
        <text font-size="16px" y="79.020844" x="359.97864" font-weight="bold"><tspan y="79.020844" x="359.97864">Heartbeat request</tspan><tspan y="96.620842" x="359.97864">(normal)</tspan></text>
      </switch>
      <switch allowReorder="yes">
        <text font-size="16px" y="221.00598" x="359.97864" font-weight="bold" systemLanguage="de"><tspan y="221.00598" x="359.97864">Heartbleed Anfrage</tspan><tspan y="238.60599" x="359.97864">(Angriff)</tspan></text>
        <text font-size="16px" y="221.00598" x="359.97864" font-weight="bold"><tspan y="221.00598" x="359.97864">Heartbleed request</tspan><tspan y="238.60599" x="359.97864">(attack)</tspan></text>
      </switch>
      <switch allowReorder="yes">
        <text font-size="12px" y="118.89575" x="339.56351" systemLanguage="de"><tspan y="118.89575" x="339.56351">Wenn du wirklich da bist,</tspan><tspan y="132.09575" x="339.56351">sende mir diese <tspan font-weight="bold" fill="#0000ff">4</tspan> Zeichen: <tspan font-weight="bold">&quot;<tspan fill="#0000ff">blah</tspan>&quot;</tspan></tspan></text>
        <text font-size="12px" y="118.89575" x="339.56351"><tspan y="118.89575" x="339.56351">If you are really there,</tspan><tspan y="132.09575" x="339.56351">send me this <tspan font-weight="bold" fill="#0000ff">4</tspan> letter word: <tspan font-weight="bold">&quot;<tspan fill="#0000ff">blah</tspan>&quot;</tspan></tspan></text>
      </switch>
      <switch allowReorder="yes">
        <text font-size="12px" y="166.39651" x="424.83792" font-weight="bold" systemLanguage="de"><tspan y="166.39651" x="424.83792">&quot;<tspan fill="#0000ff">blah</tspan>&quot;</tspan></text>
        <text font-size="12px" y="166.39651" x="424.83792" font-weight="bold"><tspan y="166.39651" x="424.83792">&quot;<tspan fill="#0000ff">blah</tspan>&quot;</tspan></text>
      </switch>
      <switch allowReorder="yes">
        <text font-size="12px" y="260.87503" x="339.56351" systemLanguage="de"><tspan y="260.87503" x="339.56351">Wenn du wirklich da bist,</tspan><tspan y="274.07504" x="339.56351">sende mir diese <tspan font-weight="bold" fill="#ff0000">40004</tspan> Zeichen: <tspan font-weight="bold">&quot;<tspan fill="#0000ff">blah</tspan>&quot;</tspan></tspan></text>
        <text font-size="12px" y="260.87503" x="339.56351"><tspan y="260.87503" x="339.56351">If you are really there,</tspan><tspan y="274.07504" x="339.56351">send me this <tspan font-weight="bold" fill="#ff0000">40004</tspan> letter word: <tspan font-weight="bold">&quot;<tspan fill="#0000ff">blah</tspan>&quot;</tspan></tspan></text>
      </switch>
      <switch allowReorder="yes">
        <text font-size="12px" y="302.71054" x="334.59183" font-weight="bold" systemLanguage="de"><tspan y="302.71054" x="334.59183">&quot;<tspan fill="#0000ff">blah</tspan><tspan font-weight="bold" fill="#ff0000">_40000_Zeichen_mit_beliebigen_</tspan></tspan><tspan y="315.91052" x="334.59183"><tspan font-weight="bold" fill="#ff0000">  teilweise_sensiblen_Serverdaten...</tspan>&quot;</tspan></text>
        <text font-size="12px" y="302.71054" x="334.59183" font-weight="bold"><tspan y="302.71054" x="334.59183">&quot;<tspan fill="#0000ff">blah</tspan><tspan font-weight="bold" fill="#ff0000">_40000_letters_of_secret_info_</tspan></tspan><tspan y="315.91052" x="334.59183"><tspan font-weight="bold" fill="#ff0000">  that_only_belongs_on_the_server...</tspan>&quot;</tspan></text>
      </switch>
    </g>
  </g>
</svg>
