<svg xmlns="http://www.w3.org/2000/svg" width="360" height="360"><g fill="none" stroke="#000"><path d="M136.2 179.5L76.1 75.4 16 179.5l60.1 104.2zm0 0H16m224.3-60.1L180.2 15.3l-60.1 104.1 60.1 104.1zm0 0H120.1"/><path d="M240.3 239.6l-60.1-104.1-60.1 104.1 60.1 104.2zm0 0H120.1m224.4-60.1L284.4 75.4l-60.2 104.1 60.2 104.2zm0 0H224.2"/><path d="M120.1 119.4L16 179.5l104.1 60.1 104.1-60.1zm0 0v120.2m60.1-224.3L76.1 75.4l104.1 60.1 104.2-60.1zm0 0v120.2"/><path d="M240.3 119.4l-104.1 60.1 104.1 60.1 104.2-60.1zm0 0v120.2m-60.1-16.1L76.1 283.7l104.1 60.1 104.2-60.1zm0 0v120.3"/><g fill="#7FC0E6"><circle cx="16" cy="179.5" r="9"/><circle cx="136.2" cy="179.5" r="9"/><circle cx="76.1" cy="75.4" r="9"/><circle cx="76.1" cy="283.7" r="9"/><circle cx="120.1" cy="119.4" r="9"/><circle cx="240.3" cy="119.4" r="9"/><circle cx="180.2" cy="15.3" r="9"/><circle cx="180.2" cy="223.5" r="9"/><circle cx="120.1" cy="239.6" r="9"/><circle cx="240.3" cy="239.6" r="9"/><circle cx="180.2" cy="135.5" r="9"/><circle cx="180.2" cy="343.8" r="9"/><circle cx="225.8" cy="181.1" r="9"/><circle cx="346" cy="181.1" r="9"/><circle cx="285.9" cy="76.9" r="9"/><circle cx="285.9" cy="285.2" r="9"/></g></g></svg>